# xmcd
#
# Track frame offsets:
#	150
#	17624
#	33730
#	50523
#	66874
#	86830
#	100981
#	121439
#	135927
#	152782
#	169125
#	184261
#	199105
#
# Disc length: 2864 seconds
#
# Revision: 1
# Processed by: cddbd v1.5.2PL0 Copyright (c) Steve Scherf et al.
# Submitted via: audiograbber 1.82.02
#
DISCID=b30b2e0d
DTITLE=Glenn Erickson - The Season Of Christmas
DYEAR=1900
DGENRE=
TTITLE0=The Season Of Christmas -Julie Maners
TTITLE1=What Will Santa Wear -William Ray
TTITLE2=Christmas Roses -Julie Maners
TTITLE3=I Belive IN Christmas -Brian Glenn
TTITLE4=Melancholy Christmas -Julie Maners
TTITLE5=Santa´s Got A Brand New Sleigh -William Ray
TTITLE6=Christmas In New York -Makky Kaylor
TTITLE7=Big Boys Toys -William Ray
TTITLE8=Christmas Blues -Makky Kaylor
TTITLE9=Billy Plum´s Christmas -William Ray
TTITLE10=Princess -William Ray
TTITLE11=Christmas is For Children -Makky Kaylor
TTITLE12=New Year´s Resolution William Ray
EXTD=
EXTT0=
EXTT1=
EXTT2=
EXTT3=
EXTT4=
EXTT5=
EXTT6=
EXTT7=
EXTT8=
EXTT9=
EXTT10=
EXTT11=
EXTT12=
PLAYORDER=
